<svg width="360" height="199" viewBox="0 0 360 199" class="css-1j8o68f"><defs id="SvgjsDefs2583"></defs><g id="SvgjsG2584" featurekey="rootContainer" transform="matrix(1,0,0,1,0,0)" fill="#e97131"><rect xmlns="http://www.w3.org/2000/svg" width="360" height="199" rx="10" ry="10"></rect></g><g id="SvgjsG2585" featurekey="7KWit6-0" transform="matrix(12.428526337261696,0,0,12.428526337261696,-24.58104856445813,3.913029911996766)" fill="#132a3a"><g xmlns="http://www.w3.org/2000/svg"><path fill="#132a3a" d="M3.874,2.338l4.324-1.033C8.391,1.257,8.583,1.376,8.63,1.569c0,0.024,0,0.048,0,0.072l0,0v12.107   c0,0.193-0.168,0.361-0.359,0.361c-0.048,0-0.096,0-0.12-0.025l-4.324-1.416c-0.144-0.049-0.24-0.191-0.24-0.336l0,0V2.698   C3.586,2.53,3.706,2.385,3.874,2.338z M7.91,2.097L4.282,2.986v9.104l3.628,1.201V2.12V2.097z"></path><path fill="#132a3a" d="M9.064,2.073h2.21c0.192,0,0.359,0.169,0.359,0.361v10.186c0,0.191-0.167,0.359-0.359,0.359h-2.21v-0.695   h1.85v-9.49h-1.85V2.097V2.073z"></path><ellipse fill="#132a3a" cx="7.334" cy="7.671" rx="0.36" ry="0.456"></ellipse></g></g><g id="SvgjsG2586" featurekey="ewgXDI-0" transform="matrix(2.2941041442979464,0,0,2.2941041442979464,139.08235867045505,66.01536870549793)" fill="#ffffff"><path d="M5.88 8.26 c-0.9 0 -0.88 0.82 -0.88 1.02 l0 0.32 l2.16 0 l0 2.6 l-2.16 0 l0 7.8 l-3.18 0 l0 -7.8 l-1.42 0 l0 -2.6 l1.42 0 l0 -0.32 c0 -3.22 2.42 -3.62 3.68 -3.62 c1 0 1.98 0.22 2.72 0.7 l-1.06 2.18 c-0.58 -0.22 -0.8 -0.28 -1.28 -0.28 z M15.46 9.44 c0.28 0 0.56 0 0.82 0.06 l0 3.02 c-0.24 -0.06 -0.52 -0.06 -0.72 -0.06 c-1.92 0 -3.46 1.38 -3.62 3.3 l0 4.24 l-3.16 0 l0 -10.4 l3.16 0 l0 2.54 c0.48 -1.56 1.68 -2.7 3.52 -2.7 z M23.060000000000002 9.42 c2.36 0 5.66 1.78 5 6.48 l-7.26 0 c0.36 1.08 1.3 1.64 2.56 1.64 c1.28 0 1.68 -0.28 2.4 -0.58 l1.74 1.68 c-0.92 0.9 -2.16 1.56 -4.26 1.56 c-2.58 0 -5.66 -1.78 -5.66 -5.36 c0 -3.64 3.12 -5.42 5.48 -5.42 z M23.060000000000002 12.120000000000001 c-0.9 0 -1.82 0.52 -2.22 1.56 l4.42 0 c-0.32 -1.04 -1.3 -1.56 -2.2 -1.56 z M33.02 5.859999999999999 l0 2.66 l-3.16 0 l0 -2.66 l3.16 0 z M33.02 9.6 l0 10.4 l-3.16 0 l0 -10.4 l3.16 0 z M44.580000000000005 9.6 l-5 7.64 l4.66 0 l0 2.76 l-9.7 0 l5 -7.64 l-4.54 0 l0 -2.76 l9.58 0 z M50.660000000000004 9.42 c2.36 0 5.66 1.78 5 6.48 l-7.26 0 c0.36 1.08 1.3 1.64 2.56 1.64 c1.28 0 1.68 -0.28 2.4 -0.58 l1.74 1.68 c-0.92 0.9 -2.16 1.56 -4.26 1.56 c-2.58 0 -5.66 -1.78 -5.66 -5.36 c0 -3.64 3.12 -5.42 5.48 -5.42 z M50.660000000000004 12.120000000000001 c-0.9 0 -1.82 0.52 -2.22 1.56 l4.42 0 c-0.32 -1.04 -1.3 -1.56 -2.2 -1.56 z M60.620000000000005 5.859999999999999 l0 2.66 l-3.16 0 l0 -2.66 l3.16 0 z M60.620000000000005 9.6 l0 10.4 l-3.16 0 l0 -10.4 l3.16 0 z M67.72000000000001 17.36 c0.56 0 0.96 -0.08 1.4 -0.2 l0 2.62 c-0.44 0.2 -1.16 0.34 -2.22 0.34 c-1.74 0 -3.2 -0.58 -3.2 -3.78 l0 -4.14 l-1.46 0 l0 -2.6 l1.46 0 l0 -2.44 l3.16 0 l0 2.44 l2.22 0 l0 2.6 l-2.22 0 l0 4.14 c0 0.46 0.12 1.02 0.86 1.02 z M73.96000000000001 5.859999999999999 l0 14.14 l-3.16 0 l0 -14.14 l3.16 0 z M84.44 9.56 l3.14 0 l-6.36 14.24 l-3.16 0 l1.92 -4.16 l-4.5 -10.08 l3.14 0 l2.92 6.68 z"></path></g></svg>
